<?xml version="1.0" encoding="iso-8859-1"?>
<!-- Generator: Adobe Illustrator 13.0.2, SVG Export Plug-In . SVG Version: 6.00 Build 14948)  -->
<!DOCTYPE svg PUBLIC "-//W3C//DTD SVG 1.1//EN" "http://www.w3.org/Graphics/SVG/1.1/DTD/svg11.dtd">
<svg version="1.1" id="Layer_1" xmlns="http://www.w3.org/2000/svg" xmlns:xlink="http://www.w3.org/1999/xlink" x="0px" y="0px"
	 width="123.547px" height="123.539px" viewBox="-0.258 -0.548 123.547 123.539"
	 style="enable-background:new -0.258 -0.548 123.547 123.539;" xml:space="preserve">
<g>
	<path style="fill:#231F20;" d="M109.086,123.363c8.156,0,14.758-6.586,14.758-14.742V14.598c0-8.156-6.602-14.758-14.758-14.758
		H15.07c-8.156,0-14.758,6.602-14.758,14.758v94.023c0,8.156,6.602,14.742,14.758,14.742H109.086z"/>
	<path d="M15.07,2.34c-6.758,0-12.258,5.5-12.258,12.258v94.023c0,6.758,5.5,12.25,12.258,12.25h94.016
		c6.766,0,12.258-5.492,12.258-12.25V14.598c0-6.758-5.492-12.258-12.258-12.258H15.07z"/>
	<path style="fill:#FFFFFF;" d="M56.711,43.301c0,3.258-2.969,6.734-6.812,6.734v55.031c0,7.805-10.656,7.805-10.656,0V50.035
		c-3.75,0-7.008-2.891-7.008-7.227V12.535c0-2.633,3.805-2.742,3.805,0.102V35.02h3.188h3.672h-0.281V12.465
		c0-2.531,3.57-2.625,3.57,0.094V35.02H53V12.465c0-2.492,3.711-2.586,3.711,0.094V43.301z"/>
	<path style="fill:#FFFFFF;" d="M90.094,19.582v85.445c0,7.641-10.672,7.531-10.672,0V71.145h-5.688V19.582
		C73.734,7.59,90.094,7.59,90.094,19.582z"/>
</g>
</svg>
